<?xml version='1.0' encoding='utf-8'?>
<svg xmlns="http://www.w3.org/2000/svg" width="464.4px" height="155.6px" enable-background="new 0 0 464.4 155.601" version="1.1" viewBox="0 0 464.4 155.601">
	<path d="m260 19.6h0.8c6.132 9.337 9.731 16.269 10.8 20.8l-0.399 0.4h-1.2c-2.4-2.131-3.6-3.463-3.6-4h-0.4v0.4c6.131 33.869 9.2 53.063 9.2 57.6 0 8-3.469 13.463-10.4 16.4l-10.399 4c-9.601 4-17.069 10.4-22.4 19.199-5.6 9.06-11.34 13.6-17.2 13.6h-1.2c-5.869 0-9.869-3.737-12-11.2v-8c0-2.4 2.531-8.537 7.6-18.4h-0.4c-10.137 8.531-20.537 18.663-31.2 30.4-9.6 9.863-16.669 14.801-21.2 14.801h-2.8c-7.2 0-11.469-5.469-12.8-16.4v-2c0-6.138 2.263-13.2 6.8-21.2l0.4-0.8v-1.6c-3.469 0.531-10.138 3.199-20 8-6.138 4.531-11.069 9.6-14.8 15.199-5.338 8-10.938 12-16.8 12h-1.2c-6.4 0-10.669-3.068-12.8-9.199v-9.201c0-3.469 4.663-12.938 14-28.399-3.737 1.063-6.269 1.601-7.6 1.601-5.869 0-10.137-3.069-12.8-9.201-0.8-3.469-2.269-5.199-4.4-5.199-1.869 0.262-4.8 2.531-8.8 6.8-1.869 2.931-2.8 4.8-2.8 5.601 3.462 5.063 6.931 7.6 10.4 7.6 7.2 1.6 10.8 4 10.8 7.199v0.4c0 3.463-0.538 5.2-1.6 5.2l-12.4-2.8h-7.6c-9.6 3.199-16.538 7.73-20.8 13.6-0.8 0.801-5.2 5.6-13.2 14.4-3.469 2.662-7.337 4-11.6 4h-1.2c-3.469 0-7.068-1.869-10.8-5.6-1.337-2.4-2-5.069-2-8v-2.4c0-4.801 3.063-12.669 9.2-23.6v-0.4c-4-4-6-8.27-6-12.801v-4.399c0-11.469 5.331-25.2 16-41.2l1.6-1.2 0.4 0.8c0 0.8-3.069 7.069-9.2 18.8-3.469 8.8-5.2 15.063-5.2 18.8 0 7.462 2 11.731 6 12.8h0.4c2.662 0 4.931-3.199 6.8-9.6l0.4-0.4h0.8v1.6c0 4.531-1.6 9.463-4.8 14.801-4.538 2.4-6.8 4.662-6.8 6.8-5.069 8.53-7.6 14.53-7.6 18v4c1.331 5.601 3.862 8.399 7.6 8.399 4.8 0 11.6-5.736 20.4-17.199 6.663-7.469 13.063-12.669 19.2-15.6l8-4.4-0.4-4.4c0-9.869 3.2-16.8 9.6-20.8 2.931-2.938 6-4.399 9.2-4.399 1.6 0 4.131 3.462 7.6 10.399 2.4 2.931 4.662 4.399 6.8 4.399 2.931 0 11.862-2.668 26.8-8v-1.199c-4.269-1.338-10.938-3.6-20-6.801l-1.2-0.399-1.6 1.601-15.6-1.201c0.8-5.868 3.2-8.799 7.2-8.799l3.6-0.4h5.6c4.531 0 13.863 2.931 28 8.8 9.6 2.399 18.531 4.132 26.8 5.2l0.4 0.799c-1.069 2.663-2.538 5.063-4.4 7.2l-7.6-1.2c-10.138 0-21.737 3.2-34.8 9.601-2.94 2.399-6.669 7.199-11.2 14.399-4.8 8.531-7.2 15.331-7.2 20.399 0 5.332 1.731 8.4 5.2 9.201h4c2.931 0 10.531-7.601 22.8-22.801 9.863-8.269 18.131-12.938 24.8-14 8.531-3.199 12.8-5.469 12.8-6.8v-4c0-2.938-1.869-13.337-5.6-31.2-2.938-18.131-5.068-29.863-6.4-35.2 0.8-4.263 1.6-6.4 2.4-6.4h0.4c7.462 12.538 11.2 19.6 11.2 21.2l-0.8 0.8-5.6-4.8 7.6 45.6 0.8 8c0 7.462-2.269 13.862-6.8 19.2-4.538 8.531-6.8 15.463-6.8 20.8v0.8c0 5.6 1.863 9.332 5.6 11.2h2.4c7.731 0 20.932-10.399 39.6-31.2 6.663-5.869 14.531-12 23.6-18.4l1.2-0.799v-0.4c-6.669-2.4-12.4-5.869-17.2-10.4-0.8-1.068-1.469-3.6-2-7.6 0-4.269 2.931-7.2 8.8-8.8h5.2c9.862 0 26.932 2.138 51.2 6.4 1.063 0 1.6 0.4 1.6 1.2-1.337 5.331-3.469 8-6.399 8-5.601 2.663-8.669 4.132-9.2 4.399-1.069 2.663-1.601 5.332-1.601 8v0.4l1.601 1.6c1.063 0 2-1.199 2.8-3.6 0 0.531 0.4 0.801 1.2 0.801v0.399c-0.8 4.531-1.469 6.8-2 6.8h-1.2c-2.938-0.8-4.4-2-4.4-3.6v-4.801l1.2-4.799v-0.4c-11.469 4.262-17.2 6.531-17.2 6.8v0.8c2.663 2.4 4 5.2 4 8.4v2.8l-1.199 0.8h-0.8c-4 0-7.069-2.269-9.2-6.8h-0.8c-5.069 0-10.669 8.263-16.8 24.8-0.537 0.801-0.8 1.863-0.8 3.2v4c0.8 5.063 3.063 7.601 6.8 7.601 5.6 0 10.8-3.869 15.6-11.601 8.262-12.538 18.262-20.669 30-24.399 9.862-3.201 14.8-6 14.8-8.4 0-1.338-2.669-16.27-8-44.8-1.338-10.931-2.938-19.731-4.8-26.4 0-1.331 0.53-3.462 1.6-6.4zm-228.4 88c3.2 1.6 4.8 3.33 4.8 5.199 0 1.332-1.737 2-5.2 2 0 4.263-4.669 10.131-14 17.6-2.938 2.4-5.338 3.863-7.2 4.4l-0.4-0.4c12.8-12.27 19.2-19.07 19.2-20.4v-6l2.8-2.4zm103.2-82.4v0.8c0 1.869-4.537 4-13.6 6.4-40.269 13.6-70.137 25.869-89.6 36.8l-2 1.2c-0.538 0-0.8-0.4-0.8-1.2 0-2.131 10.263-7.731 30.8-16.8 18.4-8 41.6-16.662 69.6-26l5.6-1.2zm-87.2 50.8c2.131 0.8 3.2 1.862 3.2 3.2v1.199l-0.8 0.801h-0.8c-1.069-1.068-1.6-2-1.6-2.801-2.138 0-3.469 5.332-4 16v1.201l-0.8 0.4h-0.4c-0.538 0-1.069-1.601-1.6-4.8-1.6-2.4-2.938-4-4-4.801h-4.8c-1.069-0.799-1.6-2-1.6-3.6 0.263-1.068 0.931-1.6 2-1.6 4 0 7.063 2.932 9.2 8.8h0.8v-5.2c0-3.999 1.731-6.937 5.2-8.799zm7.2-46c2.4 1.337 3.6 2.938 3.6 4.8l-1.2 0.8h-0.4l-2.4-2c-2.137 0-4 5.869-5.6 17.6l-0.4 0.4h-0.4c-0.8 0-1.6-2-2.4-6l-3.2-4.8-2.8 1.2h-0.8c-2.668-0.8-4-2.262-4-4.4v-1.6c0-0.531 0.932-0.8 2.8-0.8h0.4c2.931 0 6.263 3.337 10 10h0.4v-0.8c1.062-9.6 3.2-14.4 6.4-14.4zm9.2 102.8c5.063 1.863 7.6 3.6 7.6 5.2 0 1.063-1.2 3.601-3.6 7.601-0.8 0-2.938-1.338-6.4-4h-1.6l-1.6 4.4-1.6 0.8c-5.337-2.4-8-4.137-8-5.199 0-1.338 1.2-4 3.6-8l7.6 4.4 4-5.2zm3.6-74.8c0.262 0 0.4 0.8 0.4 2.4 3.2 1.6 4.8 3.2 4.8 4.8v1.6c-1.337 3.469-3.2 5.2-5.6 5.2h-1.6c-1.6 0-2.4-0.931-2.4-2.8v-1.2c2.131-6.663 3.6-10 4.4-10zm-2.8 10.4l0.8 0.8c3.462-0.531 5.2-1.332 5.2-2.4v-0.8c-1.337-1.6-2.668-2.4-4-2.4-0.8 0-1.469 1.6-2 4.8zm20.8-48.8c5.063 0 7.6 0.4 7.6 1.2v1.2c0 2.938-2 6.269-6 10-4.538 2.4-7.869 3.6-10 3.6l-0.8-0.8c1.863-1.6 4.8-3.6 8.8-6v-1.2h-7.6l-2.8 0.8h-1.2l-0.8-0.8c1.863-5.331 4.663-8 8.4-8h4.4zm10 24.4l0.4 0.4c-2.138 5.338-3.2 8.938-3.2 10.8 0 1.069 0.4 2 1.2 2.8h1.2c0.262 0 0.8-1.331 1.6-4h0.8l0.4 0.8v1.2c0 2.138-1.069 4-3.2 5.6-2.938-0.8-4.4-2.131-4.4-4v-2.8c0-4.262 1.731-7.862 5.2-10.8zm0.8 74.4l1.2 0.801v2.8c1.862 0 3.462 1.2 4.8 3.601v1.6c0 2.662-1.869 4.531-5.6 5.6h-1.2c-1.6 0-2.4-1.338-2.4-4 1.331-5.34 2.4-8.8 3.2-10.4zm0 6l-0.8 2.801v2h0.8c1.6 0 2.8-0.537 3.6-1.6v-0.4c-0.8-0.8-2-1.74-3.6-2.8zm15.6-22.4h2c0.8 0 1.2 0.531 1.2 1.601l-2 6.399h2c2.4 0 5.862-2.669 10.4-8l0.8 0.8c-0.8 3.2-3.737 6.4-8.8 9.6-1.6 0.531-3.069 0.801-4.4 0.801h-1.2c-1.069-0.27-1.6-0.938-1.6-2l1.6-5.6v-0.4h-1.6l-0.8 0.8h-0.8l-0.8-0.8c0.53-2.14 1.86-3.2 4-3.2zm17.2-54.8c2.662 2.668 4.131 5.2 4.4 7.6v1.2c0 2.4-0.938 3.6-2.8 3.6-1.869-0.263-3.337-0.663-4.4-1.2 0 2.138-1.737 3.338-5.2 3.6-2.138-0.262-3.2-1.2-3.2-2.8v-5.6l-2.8 1.6v-1.2c0.531-2.4 1.731-3.6 3.6-3.6l1.2 0.8v6.8c0 0.269 0.931 0.669 2.8 1.2h0.4c0.8-0.531 1.2-1.2 1.2-2v-0.8l-1.6-8h1.2c0.531 0 1.862 2.269 4 6.8l0.8 0.8h2l0.4-0.8-3.2-6.8 1.2-1.2zm-4.8 85.2c5.063 1.332 8 6.801 8.8 16.4-0.8 3.731-1.6 5.6-2.4 5.6l-0.8-0.799c0.531-1.601 0.8-3.201 0.8-4.801v-0.8c0-3.469-2.137-7.337-6.4-11.601l-0.8-2c0.26-1.34 0.53-2 0.8-2zm47.2-126c1.862 0 2.8 0.8 2.8 2.4v1.6c-1.6 3.738-3.869 5.6-6.8 5.6h-1.2l-0.4-0.4h-0.4l-1.6 2.8-1.2-0.4 0.4-2.8h-0.4c-0.537 0-1.469 0.538-2.8 1.6-1.069 0-2-0.531-2.8-1.6h-0.4c-0.8 0-1.869 0.538-3.2 1.6h-0.8v-0.8c0-2.131 1.731-3.462 5.2-4 0.531 1.069 1.462 1.6 2.8 1.6h0.4v-6h0.4c0.531 0 1.462 1.469 2.8 4.4h0.8c2.66-3.731 4.8-5.6 6.4-5.6zm-6.4 101.2l0.4 0.399v0.399c-2.669 8.264-4 13.601-4 16 0.262 1.863 1.2 2.801 2.8 2.801s2.4-1.338 2.4-4l1.2-0.801 0.4 0.4v3.2c0 3.2-1.469 5.331-4.4 6.399h-0.8c-2.669 0-4-2.537-4-7.6 0-2.668 1.731-8.137 5.2-16.4l0.8-0.8zm1.2-85.6c5.863 8.269 9.332 14.938 10.4 20l-0.4 1.2h-1.2l-4-4.4v0.8l5.2 34.8c2.131 11.732 3.2 19.6 3.2 23.6-1.069 9.862-1.869 14.8-2.4 14.8h-0.8c-0.538 0-1.2-4.137-2-12.4-2.938-25.599-5.737-45.599-8.4-60 0-4-0.669-7.6-2-10.8 0.8-5.062 1.6-7.6 2.4-7.6zm0.8-9.2h2c1.331 0 2.262-0.4 2.8-1.2v-2h-2c-0.8 0.538-1.74 1.6-2.8 3.2zm30 127.6l0.4 0.4v1.6c-0.538 1.332-4.138 4-10.8 8-3.469 3.463-5.869 5.201-7.2 5.201l-0.4-0.4v-1.6c3.462-4.27 9.331-8.67 17.6-13.201h0.4zm5.6-135.2c1.863 0 4.263 3.2 7.2 9.6l0.8 4.4v3.6h0.4c2.131 0 8.531-2.932 19.2-8.8l2.4-0.4h0.4l1.2 1.6v1.2c0 1.338-2.938 5.069-8.8 11.2-1.069 2.138-1.6 4-1.6 5.6v0.4c16.8-5.862 26.131-8.8 28-8.8l0.4 0.4v0.4c0 1.6-6.801 4.4-20.4 8.4-30.4 10.669-45.6 17.738-45.6 21.2v0.8c5.332 0.538 8 1.2 8 2 0 1.069-0.269 1.738-0.8 2h-1.6c-5.337-0.531-8-1.862-8-4v-0.8c0-5.332 12.263-12.263 36.8-20.8 0.8-0.531 1.731-2.662 2.8-6.4 1.331-2.4 4-5.731 8-10l-0.4-0.8h-0.8l-13.6 7.6-7.6 2.4-6 0.4h-1.6c-1.069 0-3.2-0.4-6.4-1.2h-0.4l-2.8 2h-3.2l-2.8-1.6c-0.538 0.269-1.469 1.2-2.8 2.8l-1.2-0.8v-1.2c1.862-2.931 3.2-4.4 4-4.4 1.063 0 2.4 0.8 4 2.4l1.2 0.4 1.2-2-1.2-7.2 0.4-0.4h0.4l3.6 5.6c1.331 1.337 2.931 2 4.8 2h8l0.4-2v-1.6c0-3.731-2.4-8.131-7.2-13.2v-1.6c0-0.263 0.4-0.4 1.2-0.4zm-14 58.8l0.4 1.2-1.6 9.2v1.6l2 2 2.4-3.6c0.263 0 0.4 0.263 0.4 0.8 0 2.932-0.8 5.063-2.4 6.4h-0.8c-2.669-1.338-4-2.938-4-4.8 1.06-8.531 2.26-12.8 3.6-12.8zm0.8 26c5.6 1.601 8.4 3.331 8.4 5.2-1.6 5.063-2.669 7.6-3.2 7.6h-0.8c-1.869-0.269-4.538-1.869-8-4.8v-1.2c1.6-4.537 2.8-6.8 3.6-6.8zm13.6-12v0.8c9.862 5.063 16.262 9.2 19.2 12.4 8.263-3.738 16.262-7.068 24-10v-0.801h-0.8c-17.6-2.136-30.14-3.199-37.6-3.199-3.2 0-4.8 0.262-4.8 0.8zm20.8-31.2h1.6c0.8 0 1.462 1.2 2 3.6l-0.8 1.2-3.2-1.6c-1.869 1.6-3.469 6.8-4.8 15.6v0.4h-0.8c-0.538 0-1.2-1.862-2-5.6-1.6-2.662-3.2-4-4.8-4-3.2 0-4.8-0.931-4.8-2.8v-0.8c0.263-1.063 1.2-1.6 2.8-1.6 2.4 0 5.2 2.668 8.4 8h0.4c1.33-8.262 3.33-12.4 6-12.4zm-6 69.2c0.263 1.862 0.8 2.8 1.6 2.8 2.131 0.801 3.2 1.863 3.2 3.2v1.601c0 2.931-2 4.662-6 5.199h-1.6c-1.069-0.537-1.6-1.338-1.6-2.4v-0.799c0-3.74 1.46-6.94 4.4-9.6zm-1.2 5.2l-1.2 4.4 2 0.399c1.862-0.8 2.8-1.469 2.8-2v-0.8c0-0.54-1.2-1.2-3.6-2zm31.2-75.6c1.6 0 3.063 2.669 4.4 8v0.8c-0.27 2.4-1.338 3.6-3.2 3.6h-1.2l-1.6-1.2h-0.4c0 1.6-1.6 2.537-4.8 2.8-2.4-1.063-3.601-3.063-3.601-6v-1.2c-0.8 0-1.199-0.262-1.199-0.8v-1.2l1.6-2h0.8l1.2 1.6v1.2c0 3.737 0.662 5.6 2 5.6 1.6-0.263 2.4-0.932 2.4-2l-1.601-6.4v-0.4l0.8-1.2c1.063 0.537 2.263 2.938 3.601 7.2l2 0.8 0.399-0.4h0.4l-2.4-6.8v-0.8l0.4-1.2zm5.6 81.6c2.132 0 3.2 0.262 3.2 0.8v0.8c0 2.662-1.6 5.731-4.8 9.2l-0.4 2h0.801c3.462 0 8.8-3.337 16-10h0.399v1.2c0 3.199-4.8 7.6-14.399 13.199l-2.4 0.4c-2.138-0.537-3.2-1.199-3.2-2v-2.8c0-1.868 1.463-4.538 4.4-8v-0.8h-0.4l-5.6 1.6v-0.8c0-2.14 2.13-3.74 6.4-4.8zm42 1.6h0.4v1.6c-2.138 2.663-9.2 7.063-21.2 13.201l-12.399 8h-0.4l-0.4-0.801v-1.199c2.132-2.67 8.132-6.801 18-12.4 7.46-4 12.8-6.8 16-8.4zm-7.2-128.4c2.131 0 3.199 1.2 3.199 3.6s-2 4.538-6 6.4h-2.4c-0.8 1.869-1.469 2.8-2 2.8v-0.4h-0.8l0.8-1.2-0.8-2h-0.4l-4.8 2-1.601-1.2h-1.2c0 1.069-0.938 1.6-2.801 1.6 1.063-2.663 2-4.262 2.801-4.8h2.399l2 1.2 1.2-0.8-0.8-2v-2.8l0.8-0.4c0.263 0 0.932 1.2 2 3.6l2 1.6c2.66-4.8 4.8-7.2 6.4-7.2zm-6 17.6c7.462 12 11.199 19.469 11.199 22.4v0.4h-0.4c-2.938-2.4-4.938-3.6-6-3.6l4.8 28.4h0.4c2.662-0.531 8.399-3.731 17.199-9.6l0.801-1.2-0.801-2.4c0.531-5.331 1.731-8 3.601-8 2.931 0 5.731 2.4 8.399 7.2v2.8l-1.6 1.6h-0.8l-2.4-1.2h-2.8c-0.269 2.137-6.4 6.137-18.4 12l-2.8 2c1.862 10.4 2.8 20.531 2.8 30.4-0.537 4.531-1.068 6.8-1.6 6.8-0.8 0-2.269-8.538-4.4-25.601-3.47-17.599-6.27-34.799-8.4-51.599-1.069-1.6-1.601-2.932-1.601-4 0-2.931 0.93-5.2 2.8-6.8zm167.6 39.2c6.4 6.137 9.6 10 9.6 11.6v0.4h-1.2l-2.4-0.8v0.4c0 1.068 2 5.6 6 13.599 1.6 4.531 2.4 7.332 2.4 8.4v4.4c0 5.6-2.669 8.932-8 10h-0.8c-3.737-0.801-7.469-2.801-11.199-6-0.801 5.6-3.738 8.4-8.801 8.4h-3.2c-3.738-3.201-6-4.801-6.801-4.801-2.399 5.6-6.8 8.4-13.199 8.4-5.338 0-9.738-4.4-13.2-13.2l-1.2-1.2h-1.6c-1.601 0-4.4 2.4-8.4 7.2-1.068 1.601-1.6 2.931-1.6 4 0 2.132 4.662 4.931 14 8.399 2.4 1.6 3.6 3.46 3.6 5.6v0.399c0 3.463-0.537 5.201-1.6 5.201-8.27-2.4-12.938-3.601-14-3.601h-2.4c-7.737 0-18.138 7.601-31.2 22.8-4.537 3.2-8.138 4.801-10.8 4.801h-2.4c-2.938-0.27-5.868-1.738-8.8-4.4-1.868-3.469-2.938-6.669-3.2-9.6 0-5.601 2.801-12.4 8.4-20.4l5.2-6v-0.801c-2.669-2.399-4.669-5.736-6-10h-0.8c0 2.932-1.469 6.531-4.4 10.801-4.8 4.531-9.338 6.8-13.6 6.8-6.138 0-10.669-3.868-13.601-11.601l-0.8-9.6 1.2-10.4c-1.338 0-3.2 7.063-5.601 21.201-2.137 6.399-4.399 9.6-6.8 9.6h-1.2c-2.137 0-4.668-2.27-7.6-6.801-1.869-6.137-2.8-9.868-2.8-11.199 0.531-7.2 1.331-10.801 2.399-10.801h0.4l-0.4 4.4c0 10.662 2.132 16.801 6.4 18.4h2c2.932 0 5.463-6.4 7.6-19.2 2.932-10.669 5.863-16 8.801-16h1.199l0.4 0.4v2.4c-1.6 9.332-2.4 15.063-2.4 17.2 0 6.132 1.863 10.132 5.601 12 1.6 0.8 3.331 1.2 5.2 1.2h0.399c5.862 0 10.8-3.338 14.8-10l0.801-1.6c0-3.469-1.601-10.27-4.801-20.4v-10.4h0.4v-0.8c2.662 0 5.6 8 8.8 24 1.862 8.531 5.601 12.8 11.2 12.8h0.4c2.662 0 5.331-0.8 8-2.4v-1.2c0-1.6-3.601-10.138-10.801-25.6-0.537-2.131-0.8-3.862-0.8-5.2v-1.2c0-3.2 0.263-5.063 0.8-5.6 4.531 2.669 7.601 6.4 9.2 11.2l-0.399 0.8h-0.8l-2.399-0.8c6.131 10.931 9.2 19.731 9.2 26.4v0.8c0 6.663-3.2 10.663-9.601 12h-6c-1.337 0-3.337 2-6 6-2.669 2.663-5.337 7.462-8 14.399l-0.4 2.8v2.8c0 5.331 2.662 8 8 8 4.262 0 11.862-6.8 22.8-20.399 8-5.601 14.662-9.201 20-10.801l-0.8-4.4v-0.799c0-6.67 3.199-13.201 9.6-19.601 2.131-1.868 4.4-2.8 6.8-2.8h1.2c2.131 1.331 3.731 3.73 4.8 7.199 1.862 5.063 4.663 7.601 8.4 7.601h2.399c4.531 0 8.663-3.601 12.4-10.8l2-1.2h0.8l-0.399 3.2v2.4c2.662 1.861 5.063 2.799 7.199 2.799 3.463 0 6-3.068 7.601-9.199l2-1.2 0.399 0.399v2.801h-0.4v0.4c2.931 2.931 6 4.399 9.2 4.399h1.199l2.801-0.399v-0.8c0-1.6-2.538-7.869-7.601-18.8-0.8-3.2-2.399-6.931-4.8-11.2v-2.4c0.26-3.462 0.93-5.2 2-5.2zm-165.6-49.2c2.931-0.531 4.399-1.6 4.399-3.2v-0.8h-1.2c-1.6 0-2.67 1.337-3.2 4zm17.2 4.8c5.863 2.4 10 5.869 12.4 10.4 1.063 2.938 1.6 5.069 1.6 6.4v1.6l0.8 0.8 25.6-11.6 11.2-3.6 0.8 1.2v0.4c-0.8 1.338-8.938 4.8-24.4 10.4-8.537 4-18.137 8.938-28.8 14.8h-0.4v-1.6c0-2.131 3.6-4.531 10.8-7.2l2.8-2.4v-2.4c0-4.531-4.138-9.462-12.4-14.8l-0.8-2 0.8-0.4zm10.4 38.4v0.4l2.4 0.8v-2.4l-0.801-0.8c-1.07 0-1.6 0.669-1.6 2zm4.8-1.2v1.6l0.4 0.8h1.6c0-1.6-0.67-2.4-2-2.4zm7.6-42.8h0.8c0.531 0 0.8 0.538 0.8 1.6 0.531 0 2.131 1.068 4.8 3.2-1.868 4.538-4.138 6.8-6.8 6.8-1.6 0-2.4-1.6-2.4-4.8 1.6-4.531 2.53-6.8 2.8-6.8zm-0.4 4.8l-0.4 3.2h1.601l1.2-0.4v-0.8c0-1.331-0.8-2-2.4-2zm22 25.6h0.4c2.662 2.938 4 5.469 4 7.6v1.6c0 2.137-0.801 3.2-2.4 3.2h-1.2c-0.8 0-1.469-0.531-2-1.6h-0.4c-2.138 2.669-4 4-5.601 4-2.399 0-3.737-1.6-4-4.8v-4l-2 1.6-0.8-0.8v-0.8c0-2.4 1.6-4 4.8-4.8h1.2c-0.537 1.337-0.938 3.6-1.2 6.8 0.531 1.869 1.463 2.8 2.8 2.8 1.332-0.531 2.132-1.331 2.4-2.4l-1.2-5.6v-2h0.4c0.531 0 1.862 2.269 4 6.8l0.8 0.4h2l-2.8-7.2 0.8-0.8zm0 86h0.4v1.199c0 0.531 1.199 1.332 3.6 2.4l0.4 1.6v2c0 2.131-1.869 3.731-5.601 4.801-1.868-0.538-2.8-1.469-2.8-2.801v-1.199c0-2.94 1.33-5.6 4-8zm-0.8 4.4l-1.2 3.2v1.199h2.4c1.6-0.537 2.399-1.337 2.399-2.399l-3.2-2h-0.4zm15.6-127.6l4 6c1.862-3.462 3.601-5.6 5.2-6.4h2.8c0.531 0 1.063 1.2 1.601 3.6 0 1.869-1.738 3.869-5.2 6-1.869 0-3.601 0.8-5.2 2.4l-0.8-3.2-4.8 2.8-2.4-2h-1.2l-2 2h-1.2v-1.2c0-1.6 1.063-2.931 3.2-4h2l2 1.6c1.331 0 2.132-0.531 2.4-1.6l-0.8-3.6v-1.6l0.4-0.8zm2.4 14.4c1.063 0.8 3.6 5.337 7.6 13.6 1.862 3.738 2.8 6.538 2.8 8.4v0.4l-0.399 0.4h-0.4l-4.8-4.4-0.4 1.6v1.2l5.2 29.6c2.663 16.262 4 26 4 29.2v0.4c-0.537 10.662-1.2 16-2 16h-1.6v-2c0-7.2-3.338-30.537-10-70-0.8-10.931-1.737-16.4-2.8-16.4 0.26-5.331 1.2-8 2.8-8zm7.6-12c-2.138 1.6-3.2 2.938-3.2 4 2.663-0.8 4-1.731 4-2.8l-0.8-1.2zm26.4 129.2h0.8v0.8c0 1.863-2.8 3.863-8.4 6-13.6 8-20.537 12-20.8 12l-0.8-1.199c0-1.601 1.862-3.338 5.6-5.201 7.46-4.27 15.33-8.4 23.6-12.4zm5.2-78.4h0.8c0.8 0.538 1.6 1.6 2.399 3.2-0.269 1.068-0.668 1.6-1.199 1.6l-2-1.6h-0.4c-2.138 0-3.737 5.6-4.8 16.8h-0.8c-0.538-0.538-1.338-2.263-2.4-5.2-2.138-3.731-3.737-5.6-4.8-5.6l-0.8 1.2h-0.8c-2.938 0-4.399-1.331-4.399-4v-1.6c0-0.262 0.8-0.531 2.399-0.8 3.463 0 7.063 3.2 10.801 9.6 1.06-9.062 3.06-13.6 6-13.6zm-8.4-20.8c1.331 0.537 2 1.469 2 2.8v2l-0.8 0.8h-0.8l-2-2.4-1.601 0.8v2l2 0.4h1.2l6.4-2c0.531 0 0.8 0.269 0.8 0.8 0 0.8-2.4 2.538-7.2 5.2-1.068 1.337-2.269 2-3.6 2h-0.4l0.8-3.2-2.8-2.4v-0.8c0-2.662 2-4.662 6-6zm44.4 88h0.399l0.8 0.4v3.6c0 1.863-1.737 2.801-5.199 2.801-1.601 2.399-3.469 3.6-5.601 3.6h-0.8c-1.6-1.6-2.669-2.4-3.2-2.4-1.068 0-4.938 4-11.6 12-5.338 4.531-11.338 8.4-18 11.6l-1.2 0.8h-1.6v-0.801c0-0.537 4.662-3.736 14-9.6 2.662-2.137 8.262-7.469 16.8-16 0.8-0.8 1.862-1.199 3.2-1.199h0.8l3.2 2c1.862-1.069 2.8-2.938 2.8-5.601h0.8l1.6 2.399h2v-0.4c0-2.14 0.26-3.2 0.8-3.2zm-27.2-50.4v0.8l-2.4 7.199v2c0 1.332 0.531 2.264 1.601 2.801h0.8l2.399-2.801h0.4l0.8 0.801c-1.068 4.531-2.669 6.8-4.8 6.8-2.138-1.337-3.2-3.069-3.2-5.2v-1.6c0-3.469 1.46-7.069 4.4-10.8zm23.6-36h0.8c0.801 0.269 1.463 1.069 2 2.4v1.6l-0.8 0.8h-0.4l-2-2.4c-2.938 2.137-4.4 5.068-4.4 8.8l-2 7.6h-0.4c-2.399-6.931-3.737-10.4-4-10.4h-1.2l-0.801 0.8h-0.4c-3.2-1.063-4.8-2.531-4.8-4.4v-1.6c0.8-0.531 1.6-0.8 2.399-0.8 4 0 6.932 3.337 8.8 10h0.4c0.8-8.262 3.06-12.4 6.8-12.4zm-2.4 25.6c3.462 0.269 5.199 0.938 5.199 2v0.4c0 2.4-1.868 5.6-5.6 9.6-4.537 3.2-8 4.8-10.4 4.8v-0.8c0.801-1.337 3.332-3.6 7.601-6.8v-0.4l-1.2-0.4c-5.6 0.538-8.4 0.938-8.4 1.2h-0.8l-0.8-0.4v-0.8c1.6-4.531 3.331-6.8 5.2-6.8l9.2-1.6zm-8.4-43.6c0 1.869 0.531 2.8 1.6 2.8 2.663 1.069 4 2.4 4 4 0 2.137-1.737 4-5.199 5.6h-1.6c-1.6 0-2.669-1.063-3.2-3.2 1.86-5.862 3.33-8.931 4.4-9.2zm-1.2 5.2l-0.8 4.4v0.4h2c1.063 0 2.263-0.8 3.6-2.4v-0.8l-4.8-1.6zm40 108.8l0.4 1.201c0 1.6-6.8 4.931-20.4 10-4.8 2.662-7.6 4-8.399 4l-0.4-0.4v-1.6c0.8-1.601 7.862-4.938 21.2-10 3.73-2.14 6.26-3.2 7.6-3.2zm-8.4-17.6c5.063 1.6 7.6 3.463 7.6 5.6 0 1.601-1.068 4-3.2 7.201-4.269-1.869-7.068-4-8.399-6.4 2.13-4.27 3.46-6.4 4-6.4z" fill="#FFD700"/>
</svg>