<?xml version="1.0" standalone="no"?>
<!DOCTYPE svg PUBLIC "-//W3C//DTD SVG 20010904//EN"
 "http://www.w3.org/TR/2001/REC-SVG-20010904/DTD/svg10.dtd">
<svg version="1.0" xmlns="http://www.w3.org/2000/svg"
 width="300.000000pt" height="159.000000pt" viewBox="0 0 300.000000 159.000000"
 preserveAspectRatio="xMidYMid meet">
<metadata>
Created by potrace 1.10, written by Peter Selinger 2001-2011
</metadata>
<g transform="translate(0.000000,159.000000) scale(0.100000,-0.100000)"
fill="#FFD700" stroke="none">
<path d="M1607 1462 c-6 -46 -5 -68 4 -78 10 -12 10 -15 -1 -12 -7 2 -15 -3
-17 -10 -3 -8 1 -10 11 -6 9 3 16 1 16 -5 0 -6 -4 -11 -10 -11 -5 0 -9 -18 -7
-40 1 -22 5 -40 10 -40 4 0 7 5 7 12 0 9 3 9 12 0 16 -16 23 -15 42 4 37 37 2
61 -37 27 -19 -18 -20 -17 -13 12 9 35 9 46 -2 140 l-7 70 -8 -63z"/>
<path d="M1543 1304 c-4 -11 1 -22 13 -31 16 -12 20 -11 31 3 9 13 9 19 -2 30
-18 19 -34 18 -42 -2z"/>
<path d="M1738 1229 c-22 -12 -25 -79 -5 -79 30 0 48 24 41 58 -7 35 -10 37
-36 21z m13 -52 c-7 -7 -12 -5 -17 7 -4 11 -1 21 7 27 17 11 26 -18 10 -34z"/>
<path d="M1434 1196 c-9 -20 -9 -26 3 -30 26 -10 45 -6 59 12 22 29 16 42 -18
42 -25 0 -36 -6 -44 -24z"/>
<path d="M2314 1180 c-1 -32 10 -40 20 -14 10 25 7 44 -6 44 -7 0 -13 -13 -14
-30z"/>
<path d="M1617 1184 c-12 -12 -8 -68 18 -299 14 -121 25 -239 25 -262 0 -24 5
-43 10 -43 14 0 12 122 -5 285 -18 166 -17 158 -5 150 13 -8 13 -3 -1 32 -6
15 -16 54 -23 86 -6 32 -15 55 -19 51z"/>
<path d="M2170 1170 c0 -5 6 -10 13 -10 8 0 7 -4 -3 -10 -8 -5 -11 -10 -6 -10
5 0 3 -7 -4 -15 -10 -12 -10 -15 3 -15 16 0 32 44 22 60 -8 13 -25 13 -25 0z"/>
<path d="M955 1129 c-3 -14 10 -139 30 -279 22 -155 34 -268 30 -289 -5 -28
-4 -33 5 -24 22 21 21 97 -4 280 -13 101 -22 191 -19 201 2 10 -5 45 -16 78
-17 51 -20 56 -26 33z"/>
<path d="M1079 1148 c0 -2 -2 -23 -4 -46 -5 -60 -15 -66 -15 -8 0 29 -4 45
-10 41 -14 -8 -13 -75 2 -130 15 -57 27 -58 26 -2 -1 23 3 63 9 90 6 26 7 50
2 53 -5 3 -9 4 -10 2z"/>
<path d="M1155 1058 c3 -46 15 -153 26 -238 10 -85 19 -176 19 -202 0 -27 5
-48 10 -48 15 0 12 115 -6 270 -8 74 -13 146 -10 160 5 29 -25 140 -38 140 -5
0 -5 -36 -1 -82z"/>
<path d="M1233 1073 c4 -38 16 -155 27 -261 18 -168 18 -197 6 -226 -17 -42
-73 -85 -120 -93 -48 -8 -53 11 -21 74 31 63 34 148 6 208 -24 54 -67 116 -75
108 -16 -17 -3 -69 28 -112 46 -62 62 -121 42 -158 -46 -88 -164 -146 -227
-113 -22 12 -25 69 -10 195 7 55 5 73 -5 85 -23 24 -58 -19 -59 -74 -1 -38 -8
-52 -45 -93 -77 -84 -109 -104 -154 -101 -34 2 -43 8 -55 32 -17 36 -2 111 34
181 14 25 20 45 14 45 -19 0 -71 -128 -76 -190 -13 -145 76 -183 176 -74 23
24 42 44 44 44 1 0 1 -24 -1 -53 -3 -40 0 -57 12 -67 25 -20 62 1 76 45 l12
37 19 -41 c16 -37 22 -41 54 -41 38 0 103 28 124 54 19 23 31 20 31 -7 0 -77
99 -53 162 38 48 70 54 123 35 313 -10 92 -17 178 -16 192 1 35 -24 120 -35
120 -5 0 -6 -29 -3 -67z m-358 -353 c3 -5 4 -14 0 -20 -8 -13 -35 -1 -35 16 0
16 26 19 35 4z m-20 -91 c4 -6 4 -35 0 -65 -5 -43 -12 -58 -31 -71 -59 -38
-67 47 -12 116 25 33 33 36 43 20z"/>
<path d="M1358 1122 c-4 -13 4 -116 18 -230 38 -328 35 -354 -49 -423 -37 -30
-136 -79 -162 -79 -7 0 -17 -5 -21 -12 -10 -16 117 -3 155 16 36 19 77 67 98
115 22 52 27 205 10 354 -8 70 -13 136 -11 145 2 9 -4 44 -14 77 -15 49 -19
56 -24 37z"/>
<path d="M1515 1131 c-3 -6 -1 -19 4 -30 6 -10 12 -56 14 -102 2 -46 8 -85 13
-86 9 -3 9 6 1 142 -5 73 -16 101 -32 76z"/>
<path d="M1833 1108 c-29 -16 -53 -34 -53 -39 0 -13 1 -12 68 26 28 17 52 33
52 38 0 11 -11 7 -67 -25z"/>
<path d="M1696 1112 c-3 -6 -2 -39 3 -74 24 -147 41 -297 41 -359 0 -75 -16
-97 -83 -116 -33 -10 -39 -9 -43 5 -22 72 -41 107 -59 107 -34 0 -30 -40 7
-74 18 -16 30 -33 26 -37 -15 -14 -55 14 -72 50 -18 38 -42 66 -56 66 -11 0
-30 -65 -30 -101 0 -32 28 -59 63 -59 32 0 34 -12 6 -56 -15 -25 -43 -45 -103
-74 -46 -21 -89 -47 -97 -56 -13 -16 -12 -17 6 -10 11 4 41 11 68 16 26 5 56
14 66 20 33 17 71 71 83 116 9 34 16 43 28 38 8 -3 23 -9 33 -11 10 -3 17 -15
17 -30 0 -29 -44 -74 -114 -117 -26 -15 -45 -30 -43 -33 9 -8 98 20 122 39 15
12 31 41 41 76 16 56 27 72 50 72 9 0 9 -11 2 -40 -18 -72 8 -88 81 -50 39 19
78 62 122 135 l24 40 7 -55 c10 -87 51 -108 136 -70 40 18 45 18 59 4 19 -19
73 -13 158 16 45 15 68 17 139 11 47 -5 97 -6 110 -4 52 10 60 100 31 352 -9
77 -13 146 -10 151 8 13 -26 120 -38 120 -6 0 -7 -23 -3 -57 47 -403 53 -498
34 -505 -7 -3 -46 -3 -85 0 l-73 4 25 30 c32 37 31 43 -3 78 -50 49 -263 100
-420 100 -64 0 -76 -3 -97 -25 -40 -39 -28 -100 22 -107 20 -3 16 -10 -43 -76
-68 -75 -107 -102 -145 -102 -18 0 -20 4 -14 27 3 15 21 44 40 64 57 63 61
111 32 334 -26 193 -38 248 -51 227z m318 -401 c8 -12 -101 -31 -137 -24 -27
5 -33 13 -20 26 10 10 151 8 157 -2z m186 -31 c71 -12 157 -37 164 -49 3 -4
-33 -5 -78 -3 -102 5 -143 -7 -197 -59 -48 -46 -104 -66 -145 -52 -26 8 -29
15 -32 55 -4 54 1 58 98 86 64 18 85 23 120 31 3 0 34 -4 70 -9z m-710 -90 c0
-13 -7 -13 -31 1 -11 5 -17 14 -14 20 7 11 45 -7 45 -21z m850 -9 c0 -10 -140
-52 -199 -59 -82 -9 -31 39 61 57 58 12 138 13 138 2z"/>
<path d="M2390 1078 c0 -24 11 -140 25 -258 14 -118 25 -222 25 -230 1 -8 5
-5 11 8 9 23 1 148 -20 322 -5 36 -4 68 1 71 4 3 2 25 -7 48 -8 24 -15 52 -15
62 0 11 -4 19 -10 19 -5 0 -10 -19 -10 -42z"/>
<path d="M2565 1098 c-4 -16 -4 -35 -1 -44 7 -19 42 -318 51 -444 4 -52 3 -96
-4 -112 -6 -16 -7 -28 -1 -28 15 0 30 70 29 135 0 33 -8 133 -18 222 -9 90
-13 164 -9 165 5 2 -2 32 -16 68 -22 60 -25 63 -31 38z"/>
<path d="M1444 1078 c3 -18 8 -68 12 -111 5 -51 10 -75 17 -68 12 12 -12 211
-26 211 -5 0 -7 -15 -3 -32z"/>
<path d="M2055 1101 c-6 -5 -70 -39 -143 -76 -73 -36 -130 -70 -127 -75 4 -7
278 130 300 151 12 12 -18 12 -30 0z"/>
<path d="M2140 1037 c0 -9 -3 -22 -6 -31 -3 -9 -1 -16 5 -16 6 0 11 10 11 22
0 25 15 14 23 -17 3 -11 5 -4 4 15 -1 24 -7 36 -19 38 -11 2 -18 -3 -18 -11z"/>
<path d="M2273 1020 c-28 -16 -55 -35 -59 -41 -8 -13 -8 -13 69 26 31 16 57
33 57 37 0 13 -13 9 -67 -22z"/>
<path d="M2032 1018 c-18 -18 -15 -28 10 -28 20 0 21 -1 3 -20 -28 -31 -2 -24
28 8 33 35 34 46 3 38 -13 -3 -26 -1 -28 4 -2 7 -8 6 -16 -2z"/>
<path d="M827 976 c-78 -53 -104 -108 -73 -151 9 -13 19 -16 32 -11 18 7 18 9
-3 23 -46 31 -20 78 75 137 23 14 42 28 42 31 0 13 -29 1 -73 -29z"/>
<path d="M690 980 c-10 -18 -9 -24 1 -31 20 -13 26 -11 33 8 4 9 0 23 -8 31
-12 12 -16 11 -26 -8z"/>
<path d="M895 910 c-16 -16 -37 -32 -47 -36 -18 -5 -25 -24 -9 -24 13 0 97 77
90 84 -3 3 -18 -8 -34 -24z"/>
<path d="M850 914 c0 -9 7 -14 17 -12 25 5 28 28 4 28 -12 0 -21 -6 -21 -16z"/>
<path d="M1873 918 c2 -7 -3 -18 -12 -25 -9 -6 -13 -15 -8 -19 4 -4 13 -2 19
4 20 20 24 14 20 -28 -3 -24 0 -40 6 -40 15 0 24 18 13 25 -6 3 -8 11 -6 18
15 51 16 69 1 64 -9 -4 -16 -2 -16 3 0 6 -5 10 -11 10 -6 0 -9 -6 -6 -12z"/>
<path d="M1980 881 c0 -39 20 -68 40 -56 17 11 11 25 -11 25 -18 0 -21 5 -17
35 2 19 0 35 -4 35 -4 0 -8 -17 -8 -39z"/>
<path d="M2237 913 c-4 -3 -7 -13 -7 -20 0 -11 9 -12 38 -7 l37 6 -43 -32
c-24 -18 -41 -35 -38 -38 5 -4 116 74 116 82 0 2 -23 2 -50 0 -29 -1 -48 2
-44 7 6 10 0 12 -9 2z"/>
<path d="M2062 866 c2 -22 8 -30 26 -31 13 -1 25 2 28 7 3 5 12 4 19 -2 16
-13 35 -5 35 14 0 8 -7 19 -15 26 -12 10 -16 9 -21 -5 -7 -17 -8 -17 -19 -1
-12 15 -13 15 -20 -1 -6 -17 -7 -17 -21 2 -15 19 -15 19 -12 -9z"/>
<path d="M2308 819 c-21 -11 -38 -24 -38 -30 0 -5 10 -3 22 5 27 19 42 21 32
4 -4 -7 1 -6 11 4 29 27 13 38 -27 17z"/>
<path d="M1477 823 c-12 -12 -7 -40 9 -54 13 -11 17 -10 26 5 9 16 12 16 33 2
22 -15 24 -14 31 6 4 15 1 26 -12 35 -23 17 -34 17 -34 -2 0 -19 -9 -19 -30 0
-9 8 -20 12 -23 8z"/>
<path d="M685 750 c-3 -5 -3 -14 0 -20 4 -6 -3 -9 -16 -7 -12 1 -24 -4 -26
-10 -6 -18 27 -29 37 -13 4 7 12 10 18 6 5 -3 13 1 16 10 7 18 -19 50 -29 34z"/>
<path d="M937 653 c3 -92 9 -111 25 -95 9 9 9 15 0 24 -7 7 -12 29 -12 50 0
29 3 36 15 31 12 -4 11 3 -6 31 -11 20 -22 36 -23 36 -1 0 0 -35 1 -77z"/>
<path d="M2265 447 c-6 -15 -10 -16 -16 -5 -7 10 -9 9 -9 -4 0 -9 4 -19 8 -22
15 -9 34 11 30 30 -5 18 -5 18 -13 1z"/>
<path d="M1911 375 c-1 -59 10 -97 23 -77 3 6 3 17 0 25 -3 8 -9 37 -14 63
l-8 49 -1 -60z"/>
<path d="M2120 385 c-69 -36 -108 -43 -129 -22 -10 10 -12 8 -9 -8 6 -34 53
-31 135 11 40 20 73 41 73 45 0 11 5 13 -70 -26z"/>
<path d="M2435 406 c-22 -7 -73 -29 -113 -50 -40 -20 -77 -34 -82 -31 -5 3
-11 1 -15 -5 -17 -27 31 -16 115 26 69 35 104 47 137 47 23 0 43 4 43 9 0 4
-4 8 -9 8 -5 0 -15 2 -23 4 -7 3 -31 -1 -53 -8z"/>
<path d="M1821 384 c-25 -13 -50 -23 -57 -20 -8 3 -16 1 -19 -5 -4 -5 0 -12 8
-15 15 -5 75 21 112 50 31 24 5 18 -44 -10z"/>
<path d="M1001 367 c-8 -11 -7 -18 7 -30 16 -15 19 -15 31 5 11 17 11 22 -1
29 -18 12 -24 11 -37 -4z"/>
<path d="M1610 345 c-1 -5 -3 -28 -4 -50 -2 -22 -7 -51 -11 -64 -5 -16 -5 -22
2 -18 6 4 11 1 10 -6 0 -6 1 -41 3 -77 l3 -65 9 70 c11 96 11 107 3 133 -5 14
-3 22 4 22 7 0 9 -5 5 -12 -5 -7 -3 -8 5 -4 7 5 18 0 26 -10 13 -18 14 -18 20
-1 12 31 -2 50 -35 45 -25 -4 -30 -1 -33 21 -2 14 -5 22 -7 16z"/>
<path d="M2425 320 c-6 -9 11 -50 20 -50 2 0 9 10 16 21 9 17 8 23 -2 30 -18
11 -26 11 -34 -1z"/>
<path d="M1540 290 c-15 -28 1 -48 21 -27 8 7 19 12 26 10 6 -2 10 4 9 14 -4
27 -42 29 -56 3z"/>
</g>
</svg>
